<?xml version="1.0" standalone="no"?>
<!DOCTYPE svg PUBLIC "-//W3C//DTD SVG 20010904//EN"
 "http://www.w3.org/TR/2001/REC-SVG-20010904/DTD/svg10.dtd">
<svg version="1.0" xmlns="http://www.w3.org/2000/svg"
 width="348.000000pt" height="348.000000pt" viewBox="0 0 348.000000 348.000000"
 preserveAspectRatio="xMidYMid meet">
<metadata>
Created by potrace 1.11, written by Peter Selinger 2001-2013
</metadata>
<g transform="translate(0.000000,348.000000) scale(0.100000,-0.100000)"
fill="#000000" stroke="none">
<path d="M1479 3390 c-25 -4 -60 -15 -77 -24 -17 -9 -37 -16 -45 -16 -8 0 -26
-11 -42 -24 -15 -13 -40 -27 -56 -30 -33 -6 -119 -85 -119 -109 0 -9 -5 -17
-11 -17 -28 0 -163 -125 -175 -162 -4 -13 -17 -37 -30 -54 -13 -17 -24 -37
-24 -45 0 -8 -5 -20 -10 -25 -13 -13 -24 -68 -12 -60 20 12 -14 -112 -49 -177
-5 -10 -7 -22 -3 -28 3 -5 0 -16 -6 -24 -7 -8 -9 -15 -4 -15 5 0 4 -4 -3 -8
-7 -4 -10 -17 -6 -30 3 -12 9 -19 14 -16 5 3 9 -1 9 -10 0 -27 -12 -45 -26
-39 -9 3 -14 -2 -14 -16 0 -12 5 -21 11 -21 8 0 8 -4 1 -13 -7 -8 -7 -18 -2
-27 6 -10 2 -22 -13 -38 -17 -19 -18 -22 -4 -16 10 3 23 17 30 30 7 14 17 20
24 16 9 -6 9 -18 -2 -52 -12 -40 -21 -40 -15 0 1 12 -1 12 -11 3 -10 -10 -10
-17 0 -36 7 -13 11 -39 9 -57 -2 -20 2 -35 10 -37 8 -3 10 2 6 14 -5 15 -4 15
5 3 17 -23 13 -40 -9 -40 -22 0 -30 -25 -27 -85 1 -22 -2 -40 -8 -40 -5 0 -9
8 -9 18 2 28 -14 19 -18 -10 -2 -19 -14 -32 -42 -47 -87 -46 -103 -116 -63
-267 14 -52 28 -111 31 -131 6 -34 22 -76 63 -166 16 -37 61 -69 111 -78 41
-8 51 -26 58 -106 3 -35 10 -73 16 -85 14 -28 5 -142 -14 -180 -10 -21 -15
-70 -17 -164 -2 -135 -8 -237 -16 -274 -2 -11 -4 -23 -4 -27 -1 -5 -8 -8 -17
-8 -11 0 -13 6 -9 19 3 11 2 21 -2 24 -14 9 -206 -32 -253 -54 -25 -11 -148
-72 -275 -136 -126 -64 -254 -128 -282 -142 l-53 -26 0 -112 0 -113 430 0 431
0 -65 85 c-80 104 -151 242 -135 261 14 17 39 7 39 -16 0 -11 5 -22 10 -25 6
-3 10 -1 10 4 0 18 20 12 27 -6 4 -10 9 -20 12 -23 3 -3 15 -22 25 -42 11 -21
25 -38 33 -38 8 0 11 -5 8 -10 -7 -11 33 -65 50 -67 5 -1 11 -7 14 -14 2 -7
-1 -9 -9 -4 -9 5 -11 4 -6 -4 6 -9 11 -9 22 0 11 9 14 8 14 -5 0 -9 -5 -16
-11 -16 -5 0 -7 -5 -4 -10 3 -6 -2 -10 -11 -10 -31 0 -7 -11 31 -15 21 -2 41
-8 45 -15 4 -6 13 -10 21 -8 8 2 13 -3 12 -9 -2 -10 246 -13 1204 -13 l1207 0
-79 80 c-54 55 -98 89 -135 106 -30 13 -68 32 -85 40 -16 9 -78 36 -138 60
-59 24 -158 70 -220 103 -61 32 -147 69 -190 81 -107 29 -208 68 -231 88 -17
15 -18 27 -12 117 13 215 14 218 81 330 64 106 117 247 131 350 4 28 11 58 15
67 5 10 11 46 13 81 1 35 6 69 10 76 11 16 26 4 20 -17 -5 -15 -4 -15 6 1 16
24 34 198 35 322 0 91 -2 104 -28 150 -19 34 -31 73 -37 125 -5 41 -16 113
-24 160 -9 47 -23 134 -32 194 -21 132 -67 236 -143 320 -28 31 -51 62 -51 68
0 7 -11 35 -24 63 -13 27 -34 71 -46 97 -40 87 -138 159 -293 215 -40 14 -90
34 -112 45 -26 14 -57 20 -91 19 -39 -1 -69 7 -116 29 -66 31 -74 32 -149 20z
m-229 -320 c0 -5 -2 -10 -4 -10 -3 0 -8 5 -11 10 -3 6 -1 10 4 10 6 0 11 -4
11 -10z m481 -176 c18 -9 38 -12 47 -8 10 4 30 9 46 11 16 2 31 5 34 7 5 5
110 -32 127 -44 6 -4 35 -13 65 -21 30 -7 59 -16 64 -21 6 -4 18 -8 28 -8 10
0 18 -4 18 -10 0 -5 -5 -10 -11 -10 -8 0 -8 -4 1 -15 6 -8 15 -13 18 -12 11 3
63 -54 57 -63 -3 -5 1 -15 9 -23 17 -17 11 -28 -10 -20 -18 7 -18 -5 1 -23 13
-14 16 -14 21 0 8 21 20 20 28 0 4 -12 2 -15 -9 -10 -21 8 -19 -6 5 -37 11
-14 20 -30 20 -35 0 -6 3 -12 8 -14 4 -1 14 -19 23 -38 8 -19 23 -51 31 -70
28 -61 45 -166 26 -154 -11 7 -10 -4 3 -28 6 -12 13 -35 14 -52 2 -17 6 -39
10 -48 9 -23 -17 -24 -35 -2 -23 27 -50 37 -66 24 -11 -10 -15 -9 -20 3 -5 14
-44 20 -44 7 0 -3 -15 -7 -32 -8 -60 -4 -138 -23 -152 -38 -8 -8 -17 -14 -20
-14 -3 0 -20 -16 -39 -35 -29 -29 -34 -42 -32 -74 3 -45 29 -90 41 -70 5 9 10
6 15 -9 4 -11 24 -28 43 -37 20 -10 36 -22 36 -27 0 -6 -7 -5 -15 2 -9 7 -18
10 -22 7 -3 -4 16 -17 43 -29 56 -25 158 -36 168 -19 4 6 1 11 -6 12 -7 1 -20
2 -28 3 -8 2 -30 3 -49 4 -19 1 -31 5 -27 10 4 4 11 7 14 7 4 1 24 7 45 14 21
7 47 11 57 8 11 -3 21 0 23 7 3 8 8 8 18 -1 9 -7 20 -9 29 -3 9 5 19 5 27 -1
9 -8 14 -4 19 15 3 14 10 26 15 26 5 0 8 3 8 8 -1 4 -1 15 0 25 2 25 59 19 74
-8 5 -11 9 -20 8 -20 -1 0 3 -13 10 -30 7 -16 13 -43 15 -60 1 -16 8 -50 14
-75 8 -29 10 -83 6 -149 -5 -89 -9 -108 -28 -128 -12 -13 -16 -23 -9 -23 7 0
9 -5 4 -12 -11 -19 -12 -37 -3 -43 5 -3 4 -20 -1 -38 -5 -17 -9 -46 -9 -64 0
-17 -6 -38 -13 -45 -8 -7 -19 -29 -26 -49 -6 -19 -24 -48 -39 -65 -15 -17 -26
-36 -24 -42 2 -6 -10 -26 -27 -44 -17 -18 -31 -40 -31 -48 0 -8 -14 -30 -31
-49 -25 -27 -33 -31 -41 -20 -8 11 -9 10 -4 -3 3 -10 1 -20 -5 -23 -5 -4 -7
-10 -4 -15 3 -5 0 -12 -6 -16 -7 -4 -9 -3 -5 4 11 18 -11 23 -27 7 -9 -8 -20
-15 -26 -15 -6 0 -11 -7 -11 -16 0 -11 -6 -14 -20 -9 -13 4 -20 2 -20 -7 0 -8
-9 -22 -21 -32 -13 -11 -19 -25 -16 -37 3 -10 1 -17 -3 -14 -5 3 -11 -1 -13
-7 -4 -10 -8 -9 -16 2 -7 10 -11 11 -11 3 0 -7 -7 -13 -15 -13 -8 0 -15 -4
-15 -9 0 -13 -27 -22 -100 -33 -132 -20 -139 -18 -201 44 -26 26 -43 36 -56
32 -15 -5 -16 -4 -3 5 13 10 13 13 -4 26 -11 8 -23 15 -28 15 -12 0 -10 -28 2
-35 6 -4 8 -11 5 -16 -6 -8 -55 41 -55 55 0 3 8 6 19 6 15 0 18 6 15 31 -2 18
0 28 6 24 6 -3 10 -12 10 -19 0 -7 9 -21 20 -31 11 -10 20 -15 20 -12 0 17 2
23 17 39 8 9 12 21 9 27 -4 5 -2 12 4 16 16 10 12 28 -5 21 -9 -3 -20 5 -30
22 -14 27 -15 27 -21 5 -3 -13 -10 -23 -14 -23 -14 0 -21 33 -8 41 9 6 9 11
-1 22 -15 19 4 34 23 18 10 -8 12 -6 11 10 -1 11 -7 24 -14 28 -10 6 -9 9 2
14 8 3 18 3 21 -1 4 -3 12 -7 19 -8 111 -14 117 -14 115 -2 -2 7 3 12 10 10
16 -3 15 8 -3 28 -36 40 -18 85 22 55 25 -20 57 -19 49 0 -3 8 -1 15 4 15 6 0
10 -4 10 -10 0 -5 11 -10 25 -10 27 0 34 -17 10 -26 -8 -4 -15 -10 -15 -15 0
-26 90 9 132 53 57 57 140 116 158 111 11 -3 29 5 43 19 13 13 29 22 35 20 6
-2 24 9 40 25 40 39 39 90 -5 127 -17 14 -33 36 -37 49 -7 30 -92 92 -102 76
-4 -7 -3 -9 4 -5 6 3 13 2 17 -4 3 -6 -1 -13 -9 -16 -9 -3 -16 -15 -16 -25 0
-17 -3 -18 -20 -9 -11 6 -20 7 -20 3 0 -5 14 -14 30 -20 20 -8 30 -18 30 -32
0 -12 5 -21 10 -21 6 0 10 -6 10 -14 0 -8 5 -16 10 -18 6 -2 12 -14 15 -27 2
-13 12 -29 21 -36 11 -7 14 -17 9 -25 -6 -10 -11 -10 -20 4 -12 15 -13 15 -18
-3 -7 -27 -64 -37 -111 -20 -20 7 -36 16 -36 19 0 4 -15 7 -34 8 -19 1 -59 4
-90 7 -32 3 -57 1 -61 -5 -4 -6 -13 -7 -24 -1 -26 15 -207 4 -253 -14 -11 -4
-18 -3 -18 4 0 6 -7 11 -15 11 -14 0 -20 24 -16 58 1 6 -3 12 -9 12 -5 0 -10
10 -9 23 0 12 3 17 5 12 2 -6 23 -9 46 -7 31 3 45 0 54 -12 11 -16 16 -16 66
-1 29 9 85 19 123 21 39 3 74 9 79 14 4 4 22 3 38 -2 35 -13 74 6 120 56 28
30 31 49 5 27 -18 -14 -47 -4 -47 16 0 9 -6 13 -15 10 -8 -4 -17 -1 -21 5 -4
7 -12 1 -21 -16 -21 -39 -58 -31 -113 25 -26 27 -87 43 -93 25 -2 -6 -6 -6
-10 1 -4 6 4 25 18 41 17 20 23 36 18 49 -7 17 -6 17 11 1 9 -10 18 -18 19
-18 8 0 2 90 -5 90 -6 0 -8 9 -5 20 3 12 1 35 -4 53 -6 18 -12 54 -15 81 -3
28 -7 54 -10 58 -3 5 -8 20 -10 35 -3 15 -9 32 -13 38 -4 5 -7 17 -6 25 1 17
-58 42 -80 34 -8 -4 -15 -2 -15 4 0 5 -12 12 -27 15 -171 35 -279 39 -320 11
-16 -10 -31 -19 -35 -19 -3 0 -10 -3 -14 -7 -14 -15 -23 3 -18 40 7 48 24 92
36 92 5 0 6 -6 2 -12 -4 -8 -2 -8 7 1 11 11 11 14 1 18 -10 4 -10 8 -1 19 10
12 9 18 -4 31 -15 15 -14 19 3 52 10 20 18 41 19 46 1 6 6 10 11 10 6 0 10 5
9 10 -1 6 -4 9 -8 8 -17 -4 -6 27 11 33 10 3 18 9 18 14 0 4 9 10 20 13 23 6
26 -3 8 -21 -9 -9 -8 -12 8 -12 11 0 25 -5 31 -11 7 -7 12 -6 16 5 3 8 0 22
-8 29 -17 18 -3 41 22 35 12 -3 20 0 20 7 0 8 -7 11 -16 7 -9 -3 -13 -2 -9 3
4 4 3 14 -2 20 -7 9 -7 22 0 40 8 21 8 31 -1 39 -9 8 -10 8 -5 -1 5 -9 2 -11
-8 -7 -20 8 -20 13 1 36 12 13 13 18 3 18 -10 0 -9 5 3 18 10 10 14 22 10 26
-4 4 0 4 10 0 23 -8 23 21 0 36 -17 11 -17 11 0 6 9 -3 17 -1 17 4 0 6 5 10
11 10 11 0 54 30 95 67 51 47 84 54 135 27z m-798 -339 c-3 -9 -8 -14 -10 -11
-3 3 -2 9 2 15 9 16 15 13 8 -4z m-66 -122 c-3 -10 -5 -4 -5 12 0 17 2 24 5
18 2 -7 2 -21 0 -30z m-17 -158 c0 -14 -4 -25 -9 -25 -6 0 -8 36 -2 48 5 10
11 -2 11 -23z m23 5 c-3 -12 -8 -19 -11 -16 -5 6 5 36 12 36 2 0 2 -9 -1 -20z
m-42 -143 c-10 -9 -11 -8 -5 6 3 10 9 15 12 12 3 -3 0 -11 -7 -18z m69 -17 c0
-5 -5 -10 -11 -10 -5 0 -7 5 -4 10 3 6 8 10 11 10 2 0 4 -4 4 -10z m-65 -29
c-3 -6 -11 -11 -17 -11 -6 0 -6 6 2 15 14 17 26 13 15 -4z m51 -23 c6 4 14 14
18 22 3 8 3 2 0 -15 -3 -16 -10 -36 -16 -43 -6 -7 -12 -26 -13 -43 -2 -17 -8
-36 -15 -42 -10 -10 -11 -6 -6 18 3 17 8 44 10 60 l4 30 -14 -32 c-17 -40 -28
-47 -44 -28 -7 8 -9 15 -5 15 4 0 1 8 -6 17 -10 11 -10 14 -1 9 7 -4 12 -1 12
8 0 9 4 16 9 16 6 0 7 -16 4 -37 -9 -54 13 -33 28 29 10 38 15 46 19 30 3 -13
10 -18 16 -14z m617 -65 c-7 -2 -19 -2 -25 0 -7 3 -2 5 12 5 14 0 19 -2 13 -5z
m702 -3 c3 -5 -3 -10 -14 -10 -11 0 -23 5 -26 10 -3 6 3 10 14 10 11 0 23 -4
26 -10z m-1289 -57 c-7 -7 -26 7 -26 19 0 6 6 6 15 -2 9 -7 13 -15 11 -17z
m663 1 c17 -12 20 -19 11 -24 -22 -13 25 -22 55 -10 40 15 43 4 7 -33 l-31
-32 27 0 c15 0 33 6 41 13 7 7 20 11 28 8 11 -5 13 0 8 17 -5 19 -4 19 5 5 28
-45 3 -134 -41 -145 -10 -3 -16 -9 -13 -14 3 -5 -2 -9 -10 -9 -9 0 -23 -12
-33 -27 -9 -16 -32 -45 -51 -67 -23 -26 -30 -41 -23 -46 9 -5 8 -10 -3 -20
-11 -8 -14 -22 -11 -42 5 -27 3 -29 -16 -23 -19 6 -21 4 -17 -19 3 -14 1 -26
-4 -26 -5 0 -6 -4 -3 -10 11 -17 -7 -11 -21 8 -12 16 -14 16 -31 -1 -14 -14
-15 -21 -6 -35 6 -9 15 -16 20 -15 4 1 8 -10 8 -23 0 -13 -5 -24 -12 -24 -7 0
-10 6 -7 14 11 29 -18 26 -45 -3 -20 -21 -31 -27 -34 -19 -4 9 -6 7 -6 -3 -1
-9 6 -22 14 -29 8 -7 13 -16 10 -20 -3 -5 6 -17 20 -28 14 -11 25 -25 25 -30
0 -6 5 -14 12 -18 7 -5 9 -2 4 7 -4 8 1 3 13 -11 11 -14 26 -37 32 -52 6 -16
17 -28 25 -28 13 0 30 -37 21 -47 -3 -2 -8 5 -12 17 -6 19 -12 21 -39 16 -17
-4 -33 -11 -35 -17 -3 -11 -50 -33 -63 -31 -5 1 -8 -5 -8 -14 0 -8 4 -13 9
-10 5 4 7 -2 4 -13 -3 -10 0 -22 5 -25 6 -3 8 -15 5 -25 -4 -17 -8 -18 -24 -8
-10 6 -19 18 -19 25 0 8 -5 10 -12 6 -8 -5 -9 -2 -5 9 3 9 -1 23 -9 32 -9 8
-13 15 -9 15 11 0 -25 59 -42 69 -10 6 -14 11 -9 11 5 0 4 6 -1 13 -6 6 -13
28 -17 49 -6 33 -5 36 14 31 14 -4 20 0 20 12 0 12 -5 15 -21 10 -14 -5 -20
-3 -17 5 2 6 7 11 12 10 5 -1 13 4 17 12 12 19 11 58 -2 58 -5 0 -7 5 -4 10 3
6 1 10 -5 10 -7 0 -5 6 4 15 17 18 11 45 -10 45 -16 0 -16 2 -8 23 3 9 14 13
27 11 19 -4 19 -3 -3 8 -38 19 -53 37 -52 63 0 16 -8 27 -21 31 -15 5 -17 8
-6 15 12 7 12 9 0 9 -7 0 -11 6 -8 14 3 8 1 16 -5 18 -6 2 -10 17 -10 33 0 40
-15 66 -33 59 -17 -7 -21 21 -5 31 6 3 10 12 9 18 0 9 -2 9 -6 0 -7 -18 -33
-16 -33 2 0 8 -4 15 -8 15 -5 0 -7 18 -5 40 4 59 6 64 26 72 24 10 58 -8 51
-26 -3 -8 2 -16 13 -19 21 -6 86 -2 100 6 5 3 15 2 23 -4 8 -5 11 -9 5 -10 -5
0 1 -5 15 -9 30 -10 136 -12 168 -4 38 11 24 22 -21 18 -24 -3 -55 0 -70 5
-19 7 -27 7 -27 0 0 -6 -4 -7 -10 -4 -18 11 -10 24 13 20 36 -7 120 9 125 23
3 9 -3 13 -14 12 -54 -6 -65 3 -19 13 40 10 51 17 53 35 4 26 10 27 41 6z
m661 2 c0 -3 -4 -8 -10 -11 -5 -3 -10 -1 -10 4 0 6 5 11 10 11 6 0 10 -2 10
-4z m-30 -42 c0 -2 -21 -3 -47 -3 -41 1 -44 2 -18 8 28 7 65 4 65 -5z m343
-31 c-3 -7 1 -15 9 -18 10 -4 14 -32 16 -109 3 -111 -11 -157 -16 -53 -2 34
-7 80 -12 102 -12 53 -13 125 -1 106 5 -8 7 -20 4 -28z m-1591 -8 c-3 -5 -8
-18 -9 -29 -3 -16 -1 -17 13 -6 13 12 13 9 -2 -26 -9 -21 -21 -47 -26 -58 -7
-13 -6 -16 2 -11 9 6 10 -1 4 -26 -4 -19 -8 -44 -8 -56 0 -13 -3 -23 -7 -23
-3 0 -4 -11 -2 -24 3 -13 -1 -27 -8 -31 -9 -6 -10 7 -5 61 9 90 9 78 0 167 -5
61 -4 81 6 87 16 10 51 -10 42 -25z m1178 -1 c0 -2 -7 -4 -15 -4 -8 0 -15 4
-15 10 0 5 7 7 15 4 8 -4 15 -8 15 -10z m-92 -588 c5 -26 -13 -42 -32 -27 -10
9 -16 9 -21 1 -4 -7 -18 -10 -31 -7 -14 2 -27 0 -30 -5 -3 -4 -59 -8 -124 -7
-110 1 -120 3 -126 21 -9 30 20 56 46 41 11 -7 22 -9 25 -4 3 5 48 10 101 10
53 0 98 2 100 4 2 2 23 1 46 -2 31 -4 44 -11 46 -25z m-378 -16 c0 -11 -7 -23
-15 -27 -21 -8 -28 1 -20 26 8 27 35 27 35 1z m-140 -60 c8 -5 12 -11 10 -14
-3 -2 -14 2 -24 10 -22 15 -10 19 14 4z m80 -170 c0 -5 -2 -10 -4 -10 -3 0 -8
5 -11 10 -3 6 -1 10 4 10 6 0 11 -4 11 -10z m7 -86 c9 -24 -18 -36 -34 -16
-11 15 -12 15 -8 -5 3 -16 -3 -26 -17 -34 -15 -8 -19 -8 -13 0 4 7 1 19 -7 28
-11 14 -11 15 0 9 9 -5 19 -1 28 13 18 25 42 27 51 5z m63 -34 c0 -23 -25 -27
-33 -6 -7 16 1 26 20 26 7 0 13 -9 13 -20z m-116 -56 c3 -8 2 -12 -4 -9 -6 3
-10 10 -10 16 0 14 7 11 14 -7z m559 -49 c-3 -9 -8 -14 -10 -11 -3 3 -2 9 2
15 9 16 15 13 8 -4z m80 -374 c-4 -16 -8 -19 -14 -10 -4 7 -3 19 3 26 14 18
19 12 11 -16z m-23 -31 c0 -5 -4 -10 -10 -10 -5 0 -10 5 -10 10 0 6 5 10 10
10 6 0 10 -4 10 -10z m-10 -34 c0 -3 -4 -8 -10 -11 -5 -3 -10 -1 -10 4 0 6 5
11 10 11 6 0 10 -2 10 -4z m186 -134 c-4 -37 -11 -71 -16 -77 -5 -6 -7 -21 -4
-32 4 -15 0 -25 -15 -32 -23 -13 -26 -9 -12 17 11 19 31 145 31 194 1 29 2 31
12 14 6 -12 8 -43 4 -84z m-181 48 c-3 -5 -14 -10 -23 -10 -15 0 -15 2 -2 10
20 13 33 13 25 0z m105 -160 c0 -5 -5 -10 -11 -10 -5 0 -7 5 -4 10 3 6 8 10
11 10 2 0 4 -4 4 -10z m-20 -30 c0 -5 -2 -10 -4 -10 -3 0 -8 5 -11 10 -3 6 -1
10 4 10 6 0 11 -4 11 -10z m-19 -43 c-10 -9 -11 -8 -5 6 3 10 9 15 12 12 3 -3
0 -11 -7 -18z m7 -25 c-8 -9 -14 -9 -24 -1 -18 15 -18 14 10 14 18 0 22 -3 14
-13z"/>
<path d="M1450 2519 c0 -5 5 -7 10 -4 6 3 10 8 10 11 0 2 -4 4 -10 4 -5 0 -10
-5 -10 -11z"/>
<path d="M1466 2483 c-4 -9 -3 -20 2 -25 6 -6 12 -1 15 11 6 25 -8 38 -17 14z"/>
<path d="M1305 2350 c-3 -5 1 -10 10 -10 9 0 13 5 10 10 -3 6 -8 10 -10 10 -2
0 -7 -4 -10 -10z"/>
<path d="M2300 1860 c0 -5 5 -10 10 -10 6 0 10 5 10 10 0 6 -4 10 -10 10 -5 0
-10 -4 -10 -10z"/>
<path d="M2067 1666 c27 -34 53 -46 53 -26 0 6 -11 15 -25 20 -14 5 -28 17
-31 25 -4 8 -11 15 -16 15 -6 0 3 -15 19 -34z"/>
<path d="M2107 1601 c3 -12 9 -21 14 -21 14 0 11 16 -5 29 -12 10 -13 8 -9 -8z"/>
<path d="M1700 990 c0 -5 5 -10 11 -10 5 0 7 5 4 10 -3 6 -8 10 -11 10 -2 0
-4 -4 -4 -10z"/>
<path d="M1160 1786 c0 -9 5 -16 10 -16 6 0 10 4 10 9 0 6 -4 13 -10 16 -5 3
-10 -1 -10 -9z"/>
<path d="M1450 1479 c0 -5 5 -7 10 -4 6 3 10 8 10 11 0 2 -4 4 -10 4 -5 0 -10
-5 -10 -11z"/>
<path d="M1300 1370 c0 -5 5 -10 10 -10 6 0 10 5 10 10 0 6 -4 10 -10 10 -5 0
-10 -4 -10 -10z"/>
<path d="M1427 1134 c-4 -4 -4 -10 -1 -15 6 -10 34 0 34 12 0 10 -24 12 -33 3z"/>
<path d="M940 10 c0 -5 5 -10 11 -10 5 0 7 5 4 10 -3 6 -8 10 -11 10 -2 0 -4
-4 -4 -10z"/>
</g>
</svg>
